<svg xmlns="http://www.w3.org/2000/svg" xmlns:xlink="http://www.w3.org/1999/xlink" width="700" zoomAndPan="magnify" viewBox="0 0 525 52.499999" height="70" preserveAspectRatio="xMidYMid meet" version="1.0"><defs><g/><clipPath id="be085b36a6"><path d="M 2.476562 0 L 522.523438 0 L 522.523438 52.003906 L 2.476562 52.003906 Z M 2.476562 0 " clip-rule="nonzero"/></clipPath><clipPath id="b9014717f5"><path d="M 291.933594 5.199219 L 513.109375 5.199219 L 513.109375 48.191406 L 291.933594 48.191406 Z M 291.933594 5.199219 " clip-rule="nonzero"/></clipPath><clipPath id="44593db263"><path d="M 299.734375 5.199219 L 505.289062 5.199219 C 507.359375 5.199219 509.339844 6.023438 510.804688 7.484375 C 512.265625 8.949219 513.089844 10.933594 513.089844 13 L 513.089844 40.390625 C 513.089844 42.460938 512.265625 44.445312 510.804688 45.90625 C 509.339844 47.371094 507.359375 48.191406 505.289062 48.191406 L 299.734375 48.191406 C 297.664062 48.191406 295.679688 47.371094 294.21875 45.90625 C 292.753906 44.445312 291.933594 42.460938 291.933594 40.390625 L 291.933594 13 C 291.933594 10.933594 292.753906 8.949219 294.21875 7.484375 C 295.679688 6.023438 297.664062 5.199219 299.734375 5.199219 Z M 299.734375 5.199219 " clip-rule="nonzero"/></clipPath><clipPath id="44f96a64b5"><path d="M 0.933594 0.199219 L 222.109375 0.199219 L 222.109375 43.191406 L 0.933594 43.191406 Z M 0.933594 0.199219 " clip-rule="nonzero"/></clipPath><clipPath id="573845abb9"><path d="M 8.734375 0.199219 L 214.289062 0.199219 C 216.359375 0.199219 218.339844 1.023438 219.804688 2.484375 C 221.265625 3.949219 222.089844 5.933594 222.089844 8 L 222.089844 35.390625 C 222.089844 37.460938 221.265625 39.445312 219.804688 40.90625 C 218.339844 42.371094 216.359375 43.191406 214.289062 43.191406 L 8.734375 43.191406 C 6.664062 43.191406 4.679688 42.371094 3.21875 40.90625 C 1.753906 39.445312 0.933594 37.460938 0.933594 35.390625 L 0.933594 8 C 0.933594 5.933594 1.753906 3.949219 3.21875 2.484375 C 4.679688 1.023438 6.664062 0.199219 8.734375 0.199219 Z M 8.734375 0.199219 " clip-rule="nonzero"/></clipPath><clipPath id="8a58f2e915"><rect x="0" width="223" y="0" height="44"/></clipPath><clipPath id="beb124dc6a"><path d="M 342.214844 12.664062 L 462.570312 12.664062 L 462.570312 40.894531 L 342.214844 40.894531 Z M 342.214844 12.664062 " clip-rule="nonzero"/></clipPath><clipPath id="471764ea54"><path d="M 2.476562 0 L 10.277344 0 L 10.277344 52.003906 L 2.476562 52.003906 Z M 2.476562 0 " clip-rule="nonzero"/></clipPath><clipPath id="f1d3ed8aeb"><path d="M 0.476562 0 L 8.277344 0 L 8.277344 52.003906 L 0.476562 52.003906 Z M 0.476562 0 " clip-rule="nonzero"/></clipPath><clipPath id="b70f902f9d"><rect x="0" width="9" y="0" height="53"/></clipPath></defs><g clip-path="url(#be085b36a6)"><path fill="#ffffff" d="M 2.476562 0 L 522.523438 0 L 522.523438 52.003906 L 2.476562 52.003906 Z M 2.476562 0 " fill-opacity="1" fill-rule="nonzero"/><path fill="#ffffff" d="M 2.476562 0 L 522.523438 0 L 522.523438 52.003906 L 2.476562 52.003906 Z M 2.476562 0 " fill-opacity="1" fill-rule="nonzero"/></g><g clip-path="url(#b9014717f5)"><g clip-path="url(#44593db263)"><g transform="matrix(1, 0, 0, 1, 291, 5)"><g clip-path="url(#8a58f2e915)"><g clip-path="url(#44f96a64b5)"><g clip-path="url(#573845abb9)"><path fill="#65cf72" d="M 0.933594 0.199219 L 222.109375 0.199219 L 222.109375 43.191406 L 0.933594 43.191406 Z M 0.933594 0.199219 " fill-opacity="1" fill-rule="nonzero"/></g></g></g></g></g></g><g clip-path="url(#beb124dc6a)"><path fill="#ffffff" d="M 356.21875 12.679688 C 348.566406 12.679688 342.335938 18.910156 342.332031 26.5625 C 342.332031 29.011719 342.96875 31.398438 344.1875 33.503906 L 342.214844 40.703125 L 349.578125 38.769531 C 351.605469 39.875 353.886719 40.457031 356.210938 40.460938 L 356.21875 40.460938 C 363.871094 40.460938 370.097656 34.230469 370.101562 26.574219 C 370.105469 22.863281 368.660156 19.375 366.039062 16.75 C 363.417969 14.128906 359.933594 12.683594 356.21875 12.679688 Z M 356.21875 38.117188 L 356.214844 38.117188 C 354.140625 38.117188 352.109375 37.558594 350.339844 36.507812 L 349.917969 36.257812 L 345.550781 37.402344 L 346.714844 33.144531 L 346.441406 32.707031 C 345.285156 30.871094 344.675781 28.746094 344.675781 26.566406 C 344.679688 20.203125 349.855469 15.027344 356.222656 15.027344 C 359.304688 15.027344 362.203125 16.226562 364.382812 18.410156 C 366.5625 20.589844 367.761719 23.492188 367.757812 26.574219 C 367.757812 32.9375 362.578125 38.117188 356.21875 38.117188 Z M 362.546875 29.472656 C 362.199219 29.296875 360.496094 28.460938 360.175781 28.34375 C 359.859375 28.226562 359.628906 28.167969 359.394531 28.519531 C 359.164062 28.867188 358.5 29.648438 358.296875 29.878906 C 358.097656 30.109375 357.890625 30.136719 357.546875 29.964844 C 357.199219 29.792969 356.082031 29.425781 354.757812 28.242188 C 353.726562 27.324219 353.027344 26.1875 352.828125 25.839844 C 352.625 25.488281 352.804688 25.304688 352.980469 25.132812 C 353.136719 24.976562 353.328125 24.726562 353.5 24.523438 C 353.671875 24.320312 353.730469 24.175781 353.847656 23.941406 C 353.960938 23.710938 353.902344 23.507812 353.816406 23.335938 C 353.730469 23.160156 353.035156 21.453125 352.746094 20.757812 C 352.464844 20.082031 352.179688 20.171875 351.964844 20.164062 C 351.765625 20.152344 351.535156 20.148438 351.300781 20.148438 C 351.070312 20.148438 350.695312 20.238281 350.375 20.582031 C 350.058594 20.929688 349.164062 21.769531 349.164062 23.476562 C 349.164062 25.183594 350.40625 26.835938 350.578125 27.066406 C 350.753906 27.296875 353.027344 30.804688 356.507812 32.304688 C 357.335938 32.664062 357.980469 32.875 358.484375 33.035156 C 359.316406 33.300781 360.070312 33.261719 360.667969 33.171875 C 361.335938 33.070312 362.722656 32.332031 363.011719 31.523438 C 363.300781 30.710938 363.300781 30.019531 363.210938 29.871094 C 363.125 29.726562 362.894531 29.640625 362.546875 29.46875 Z M 387.113281 29.261719 L 387.074219 29.261719 L 384.773438 19.972656 L 382 19.972656 L 379.660156 29.148438 L 379.625 29.148438 L 377.492188 19.972656 L 374.527344 19.972656 L 378.09375 33.449219 L 381.097656 33.449219 L 383.339844 24.277344 L 383.378906 24.277344 L 385.664062 33.449219 L 388.605469 33.449219 L 392.230469 19.972656 L 389.324219 19.972656 L 387.117188 29.261719 Z M 401.265625 24.53125 C 401 24.1875 400.640625 23.917969 400.179688 23.71875 C 399.722656 23.527344 399.132812 23.429688 398.417969 23.429688 C 397.914062 23.429688 397.398438 23.558594 396.867188 23.816406 C 396.339844 24.074219 395.90625 24.484375 395.566406 25.050781 L 395.511719 25.050781 L 395.511719 19.972656 L 392.832031 19.972656 L 392.832031 33.449219 L 395.511719 33.449219 L 395.511719 28.335938 C 395.511719 27.339844 395.671875 26.628906 396 26.191406 C 396.328125 25.761719 396.855469 25.542969 397.585938 25.542969 C 398.226562 25.542969 398.675781 25.738281 398.925781 26.136719 C 399.179688 26.53125 399.304688 27.132812 399.304688 27.9375 L 399.304688 33.449219 L 401.984375 33.449219 L 401.984375 27.449219 C 401.984375 26.84375 401.929688 26.292969 401.820312 25.796875 C 401.714844 25.300781 401.53125 24.878906 401.265625 24.53125 Z M 412.304688 31.28125 L 412.304688 26.203125 C 412.304688 25.609375 412.171875 25.136719 411.90625 24.777344 C 411.640625 24.417969 411.304688 24.140625 410.886719 23.9375 C 410.472656 23.734375 410.011719 23.601562 409.511719 23.53125 C 409.007812 23.464844 408.511719 23.425781 408.019531 23.425781 C 407.480469 23.425781 406.941406 23.480469 406.40625 23.589844 C 405.871094 23.695312 405.390625 23.875 404.964844 24.128906 C 404.535156 24.378906 404.183594 24.714844 403.90625 25.128906 C 403.628906 25.542969 403.472656 26.0625 403.433594 26.695312 L 406.113281 26.695312 C 406.164062 26.164062 406.339844 25.789062 406.644531 25.5625 C 406.945312 25.335938 407.359375 25.222656 407.886719 25.222656 C 408.128906 25.222656 408.351562 25.238281 408.558594 25.269531 C 408.765625 25.300781 408.949219 25.363281 409.105469 25.457031 C 409.261719 25.550781 409.386719 25.683594 409.484375 25.855469 C 409.578125 26.023438 409.625 26.253906 409.625 26.542969 C 409.636719 26.820312 409.554688 27.03125 409.378906 27.175781 C 409.203125 27.320312 408.960938 27.429688 408.660156 27.503906 C 408.359375 27.582031 408.015625 27.636719 407.621094 27.675781 C 407.234375 27.714844 406.835938 27.765625 406.433594 27.828125 C 406.03125 27.890625 405.632812 27.972656 405.234375 28.082031 C 404.839844 28.1875 404.484375 28.351562 404.179688 28.5625 C 403.871094 28.777344 403.617188 29.0625 403.421875 29.421875 C 403.230469 29.78125 403.128906 30.238281 403.128906 30.789062 C 403.128906 31.292969 403.214844 31.726562 403.386719 32.089844 C 403.554688 32.457031 403.789062 32.757812 404.09375 32.996094 C 404.394531 33.238281 404.746094 33.414062 405.148438 33.527344 C 405.550781 33.640625 405.984375 33.695312 406.449219 33.695312 C 407.054688 33.695312 407.644531 33.609375 408.222656 33.433594 C 408.804688 33.253906 409.308594 32.949219 409.734375 32.507812 C 409.746094 32.671875 409.769531 32.832031 409.800781 32.988281 C 409.832031 33.144531 409.871094 33.300781 409.921875 33.449219 L 412.640625 33.449219 C 412.515625 33.25 412.425781 32.945312 412.375 32.542969 C 412.324219 32.140625 412.300781 31.722656 412.300781 31.28125 Z M 409.625 29.675781 C 409.625 29.828125 409.609375 30.03125 409.578125 30.28125 C 409.546875 30.53125 409.460938 30.78125 409.324219 31.023438 C 409.183594 31.269531 408.96875 31.480469 408.679688 31.65625 C 408.394531 31.835938 407.984375 31.921875 407.453125 31.921875 C 407.242188 31.921875 407.03125 31.902344 406.832031 31.863281 C 406.628906 31.828125 406.453125 31.761719 406.304688 31.667969 C 406.152344 31.574219 406.03125 31.445312 405.945312 31.28125 C 405.855469 31.117188 405.8125 30.914062 405.8125 30.675781 C 405.8125 30.425781 405.855469 30.21875 405.945312 30.054688 C 406.03125 29.890625 406.148438 29.753906 406.292969 29.648438 C 406.4375 29.542969 406.609375 29.457031 406.804688 29.394531 C 406.996094 29.332031 407.195312 29.28125 407.398438 29.242188 C 407.613281 29.207031 407.824219 29.171875 408.039062 29.148438 C 408.253906 29.125 408.457031 29.089844 408.652344 29.054688 C 408.851562 29.015625 409.03125 28.96875 409.203125 28.914062 C 409.371094 28.855469 409.515625 28.777344 409.625 28.675781 Z M 417.304688 20.765625 L 414.625 20.765625 L 414.625 23.691406 L 413.003906 23.691406 L 413.003906 25.484375 L 414.625 25.484375 L 414.625 31.242188 C 414.625 31.734375 414.707031 32.128906 414.871094 32.429688 C 415.035156 32.730469 415.257812 32.964844 415.539062 33.128906 C 415.824219 33.292969 416.152344 33.402344 416.523438 33.460938 C 416.894531 33.515625 417.289062 33.546875 417.703125 33.546875 C 417.96875 33.546875 418.238281 33.539062 418.515625 33.527344 C 418.792969 33.511719 419.042969 33.488281 419.269531 33.449219 L 419.269531 31.375 C 419.144531 31.398438 419.011719 31.417969 418.871094 31.429688 C 418.734375 31.445312 418.589844 31.449219 418.441406 31.449219 C 417.988281 31.449219 417.6875 31.375 417.535156 31.222656 C 417.382812 31.074219 417.308594 30.769531 417.308594 30.316406 L 417.308594 25.484375 L 419.273438 25.484375 L 419.273438 23.691406 L 417.308594 23.691406 L 417.308594 20.765625 Z M 428.378906 29.175781 C 428.203125 28.867188 427.972656 28.609375 427.683594 28.402344 C 427.394531 28.195312 427.0625 28.027344 426.691406 27.902344 C 426.320312 27.777344 425.9375 27.671875 425.550781 27.582031 C 425.171875 27.492188 424.804688 27.410156 424.4375 27.335938 C 424.074219 27.261719 423.75 27.175781 423.464844 27.082031 C 423.183594 26.988281 422.953125 26.863281 422.777344 26.714844 C 422.601562 26.5625 422.515625 26.367188 422.515625 26.128906 C 422.515625 25.925781 422.5625 25.765625 422.664062 25.644531 C 422.765625 25.527344 422.886719 25.4375 423.03125 25.371094 C 423.179688 25.308594 423.335938 25.269531 423.511719 25.25 C 423.6875 25.230469 423.851562 25.222656 424.003906 25.222656 C 424.480469 25.222656 424.898438 25.3125 425.25 25.496094 C 425.601562 25.675781 425.796875 26.027344 425.832031 26.542969 L 428.382812 26.542969 C 428.332031 25.9375 428.175781 25.4375 427.921875 25.039062 C 427.664062 24.644531 427.339844 24.328125 426.949219 24.085938 C 426.558594 23.847656 426.117188 23.679688 425.617188 23.578125 C 425.121094 23.476562 424.609375 23.425781 424.082031 23.425781 C 423.550781 23.425781 423.035156 23.472656 422.535156 23.566406 C 422.03125 23.660156 421.578125 23.824219 421.175781 24.058594 C 420.773438 24.289062 420.449219 24.609375 420.203125 25.011719 C 419.957031 25.414062 419.835938 25.929688 419.835938 26.558594 C 419.835938 26.984375 419.921875 27.347656 420.101562 27.644531 C 420.273438 27.941406 420.507812 28.183594 420.796875 28.378906 C 421.085938 28.574219 421.417969 28.734375 421.789062 28.851562 C 422.160156 28.972656 422.539062 29.074219 422.929688 29.164062 C 423.886719 29.367188 424.632812 29.566406 425.167969 29.769531 C 425.699219 29.96875 425.96875 30.269531 425.96875 30.675781 C 425.96875 30.914062 425.914062 31.109375 425.796875 31.265625 C 425.683594 31.425781 425.542969 31.550781 425.375 31.644531 C 425.203125 31.738281 425.015625 31.808594 424.804688 31.851562 C 424.597656 31.894531 424.398438 31.917969 424.210938 31.917969 C 423.945312 31.917969 423.691406 31.886719 423.445312 31.824219 C 423.199219 31.761719 422.984375 31.664062 422.796875 31.53125 C 422.605469 31.398438 422.453125 31.230469 422.332031 31.019531 C 422.214844 30.8125 422.152344 30.566406 422.152344 30.273438 L 419.605469 30.273438 C 419.632812 30.929688 419.777344 31.472656 420.050781 31.90625 C 420.320312 32.34375 420.664062 32.691406 421.085938 32.957031 C 421.507812 33.222656 421.988281 33.410156 422.53125 33.523438 C 423.070312 33.636719 423.625 33.695312 424.191406 33.695312 C 424.753906 33.695312 425.289062 33.640625 425.820312 33.535156 C 426.355469 33.425781 426.832031 33.242188 427.246094 32.976562 C 427.660156 32.710938 427.996094 32.363281 428.257812 31.929688 C 428.511719 31.492188 428.640625 30.957031 428.640625 30.316406 C 428.640625 29.859375 428.554688 29.480469 428.378906 29.175781 L 428.375 29.175781 Z M 433.703125 19.972656 L 428.609375 33.449219 L 431.589844 33.449219 L 432.644531 30.449219 L 437.683594 30.449219 L 438.703125 33.449219 L 441.777344 33.449219 L 436.742188 19.972656 Z M 433.417969 28.242188 L 435.175781 23.296875 L 435.210938 23.296875 L 436.910156 28.242188 Z M 451.042969 25.015625 C 450.679688 24.535156 450.21875 24.152344 449.667969 23.863281 C 449.113281 23.574219 448.453125 23.429688 447.6875 23.429688 C 447.082031 23.429688 446.53125 23.550781 446.027344 23.789062 C 445.519531 24.027344 445.105469 24.410156 444.78125 24.9375 L 444.742188 24.9375 L 444.742188 23.691406 L 442.191406 23.691406 L 442.191406 36.867188 L 444.875 36.867188 L 444.875 32.242188 L 444.910156 32.242188 C 445.238281 32.722656 445.65625 33.082031 446.167969 33.328125 C 446.675781 33.570312 447.234375 33.695312 447.839844 33.695312 C 448.554688 33.695312 449.179688 33.554688 449.714844 33.28125 C 450.25 33.003906 450.695312 32.628906 451.054688 32.164062 C 451.414062 31.699219 451.679688 31.164062 451.859375 30.5625 C 452.03125 29.957031 452.121094 29.328125 452.121094 28.671875 C 452.121094 27.980469 452.03125 27.316406 451.859375 26.679688 C 451.679688 26.046875 451.410156 25.488281 451.046875 25.011719 L 451.042969 25.011719 Z M 449.328125 29.75 C 449.25 30.128906 449.121094 30.457031 448.941406 30.742188 C 448.757812 31.023438 448.519531 31.257812 448.222656 31.429688 C 447.925781 31.605469 447.558594 31.695312 447.117188 31.695312 C 446.679688 31.695312 446.328125 31.609375 446.027344 31.429688 C 445.722656 31.253906 445.480469 31.023438 445.296875 30.742188 C 445.117188 30.460938 444.984375 30.128906 444.902344 29.75 C 444.820312 29.375 444.78125 28.988281 444.78125 28.601562 C 444.78125 28.210938 444.820312 27.808594 444.894531 27.429688 C 444.96875 27.054688 445.097656 26.71875 445.28125 26.429688 C 445.460938 26.140625 445.703125 25.90625 446 25.722656 C 446.292969 25.539062 446.660156 25.449219 447.101562 25.449219 C 447.542969 25.449219 447.890625 25.539062 448.1875 25.722656 C 448.480469 25.90625 448.726562 26.144531 448.914062 26.441406 C 449.101562 26.734375 449.238281 27.074219 449.320312 27.449219 C 449.402344 27.828125 449.441406 28.210938 449.441406 28.601562 C 449.441406 28.992188 449.402344 29.375 449.328125 29.753906 Z M 462.535156 26.683594 C 462.359375 26.050781 462.089844 25.492188 461.722656 25.015625 C 461.359375 24.539062 460.902344 24.152344 460.347656 23.863281 C 459.792969 23.574219 459.132812 23.429688 458.363281 23.429688 C 457.761719 23.429688 457.207031 23.550781 456.703125 23.789062 C 456.203125 24.027344 455.785156 24.410156 455.457031 24.9375 L 455.421875 24.9375 L 455.421875 23.691406 L 452.875 23.691406 L 452.875 36.867188 L 455.554688 36.867188 L 455.554688 32.242188 L 455.589844 32.242188 C 455.917969 32.722656 456.335938 33.082031 456.847656 33.328125 C 457.355469 33.570312 457.914062 33.695312 458.515625 33.695312 C 459.234375 33.695312 459.855469 33.554688 460.390625 33.28125 C 460.925781 33.003906 461.375 32.628906 461.730469 32.164062 C 462.09375 31.699219 462.359375 31.164062 462.535156 30.5625 C 462.710938 29.957031 462.796875 29.328125 462.796875 28.671875 C 462.796875 27.980469 462.710938 27.316406 462.535156 26.679688 Z M 460.003906 29.75 C 459.929688 30.128906 459.800781 30.457031 459.621094 30.742188 C 459.4375 31.023438 459.199219 31.257812 458.902344 31.429688 C 458.605469 31.605469 458.238281 31.695312 457.796875 31.695312 C 457.355469 31.695312 457.003906 31.609375 456.703125 31.429688 C 456.398438 31.253906 456.160156 31.023438 455.976562 30.742188 C 455.792969 30.460938 455.660156 30.128906 455.582031 29.75 C 455.5 29.375 455.457031 28.988281 455.457031 28.601562 C 455.457031 28.210938 455.496094 27.808594 455.570312 27.429688 C 455.648438 27.054688 455.777344 26.71875 455.957031 26.429688 C 456.140625 26.140625 456.378906 25.90625 456.675781 25.722656 C 456.96875 25.539062 457.339844 25.449219 457.78125 25.449219 C 458.222656 25.449219 458.566406 25.539062 458.863281 25.722656 C 459.160156 25.90625 459.402344 26.144531 459.589844 26.441406 C 459.78125 26.734375 459.914062 27.074219 459.996094 27.449219 C 460.078125 27.828125 460.121094 28.210938 460.121094 28.601562 C 460.121094 28.992188 460.082031 29.375 460.003906 29.753906 Z M 460.003906 29.75 " fill-opacity="1" fill-rule="nonzero"/></g><g fill="#24386d" fill-opacity="1"><g transform="translate(22.616666, 34.262227)"><g><path d="M 9.125 -13.15625 C 9.125 -13.082031 9.097656 -13.019531 9.046875 -12.96875 C 8.992188 -12.914062 8.929688 -12.890625 8.859375 -12.890625 L 4.234375 -12.890625 C 4.160156 -12.890625 4.125 -12.851562 4.125 -12.78125 L 4.125 -9.265625 C 4.125 -9.191406 4.160156 -9.15625 4.234375 -9.15625 L 6.875 -9.15625 C 6.945312 -9.15625 7.007812 -9.128906 7.0625 -9.078125 C 7.113281 -9.023438 7.140625 -8.960938 7.140625 -8.890625 L 7.140625 -6.71875 C 7.140625 -6.644531 7.113281 -6.582031 7.0625 -6.53125 C 7.007812 -6.476562 6.945312 -6.453125 6.875 -6.453125 L 4.234375 -6.453125 C 4.160156 -6.453125 4.125 -6.414062 4.125 -6.34375 L 4.125 -0.265625 C 4.125 -0.191406 4.097656 -0.128906 4.046875 -0.078125 C 3.992188 -0.0234375 3.929688 0 3.859375 0 L 1.25 0 C 1.175781 0 1.113281 -0.0234375 1.0625 -0.078125 C 1.007812 -0.128906 0.984375 -0.191406 0.984375 -0.265625 L 0.984375 -15.3125 C 0.984375 -15.394531 1.007812 -15.460938 1.0625 -15.515625 C 1.113281 -15.566406 1.175781 -15.59375 1.25 -15.59375 L 8.859375 -15.59375 C 8.929688 -15.59375 8.992188 -15.566406 9.046875 -15.515625 C 9.097656 -15.460938 9.125 -15.394531 9.125 -15.3125 Z M 9.125 -13.15625 "/></g></g></g><g fill="#24386d" fill-opacity="1"><g transform="translate(35.37609, 34.262227)"><g><path d="M 4.921875 0.171875 C 3.597656 0.171875 2.5625 -0.160156 1.8125 -0.828125 C 1.0625 -1.492188 0.6875 -2.40625 0.6875 -3.5625 L 0.6875 -7.875 C 0.6875 -9.007812 1.066406 -9.914062 1.828125 -10.59375 C 2.585938 -11.28125 3.617188 -11.625 4.921875 -11.625 C 6.242188 -11.625 7.28125 -11.28125 8.03125 -10.59375 C 8.789062 -9.914062 9.171875 -9.007812 9.171875 -7.875 L 9.171875 -3.5625 C 9.171875 -2.40625 8.796875 -1.492188 8.046875 -0.828125 C 7.296875 -0.160156 6.253906 0.171875 4.921875 0.171875 Z M 4.921875 -2.53125 C 5.242188 -2.53125 5.507812 -2.648438 5.71875 -2.890625 C 5.925781 -3.128906 6.03125 -3.4375 6.03125 -3.8125 L 6.03125 -7.65625 C 6.03125 -8.03125 5.925781 -8.332031 5.71875 -8.5625 C 5.507812 -8.800781 5.242188 -8.921875 4.921875 -8.921875 C 4.597656 -8.921875 4.332031 -8.800781 4.125 -8.5625 C 3.925781 -8.332031 3.828125 -8.03125 3.828125 -7.65625 L 3.828125 -3.8125 C 3.828125 -3.4375 3.925781 -3.128906 4.125 -2.890625 C 4.332031 -2.648438 4.597656 -2.53125 4.921875 -2.53125 Z M 4.921875 -2.53125 "/></g></g></g><g fill="#24386d" fill-opacity="1"><g transform="translate(49.360348, 34.262227)"><g><path d="M 5.96875 -11.578125 C 6.363281 -11.578125 6.675781 -11.503906 6.90625 -11.359375 C 7.019531 -11.285156 7.0625 -11.171875 7.03125 -11.015625 L 6.609375 -8.421875 C 6.597656 -8.253906 6.492188 -8.191406 6.296875 -8.234375 C 6.140625 -8.296875 5.941406 -8.328125 5.703125 -8.328125 C 5.472656 -8.328125 5.28125 -8.296875 5.125 -8.234375 C 4.78125 -8.179688 4.503906 -7.976562 4.296875 -7.625 C 4.085938 -7.28125 3.984375 -6.875 3.984375 -6.40625 L 3.984375 -0.296875 C 3.984375 -0.210938 3.957031 -0.144531 3.90625 -0.09375 C 3.851562 -0.0390625 3.789062 -0.015625 3.71875 -0.015625 L 1.109375 -0.015625 C 1.035156 -0.015625 0.972656 -0.0390625 0.921875 -0.09375 C 0.867188 -0.144531 0.84375 -0.210938 0.84375 -0.296875 L 0.84375 -11.171875 C 0.84375 -11.242188 0.867188 -11.304688 0.921875 -11.359375 C 0.972656 -11.410156 1.035156 -11.4375 1.109375 -11.4375 L 3.71875 -11.4375 C 3.789062 -11.4375 3.851562 -11.410156 3.90625 -11.359375 C 3.957031 -11.304688 3.984375 -11.242188 3.984375 -11.171875 L 3.984375 -10.3125 C 3.984375 -10.25 3.992188 -10.210938 4.015625 -10.203125 C 4.035156 -10.203125 4.0625 -10.222656 4.09375 -10.265625 C 4.5 -11.140625 5.125 -11.578125 5.96875 -11.578125 Z M 5.96875 -11.578125 "/></g></g></g><g fill="#24386d" fill-opacity="1"><g transform="translate(60.717391, 34.262227)"><g/></g></g><g fill="#24386d" fill-opacity="1"><g transform="translate(69.313633, 34.262227)"><g><path d="M 8.109375 -15.40625 C 8.160156 -15.53125 8.269531 -15.59375 8.4375 -15.59375 L 11.015625 -15.59375 C 11.097656 -15.59375 11.160156 -15.566406 11.203125 -15.515625 C 11.253906 -15.460938 11.28125 -15.394531 11.28125 -15.3125 L 11.28125 -0.265625 C 11.28125 -0.191406 11.253906 -0.128906 11.203125 -0.078125 C 11.160156 -0.0234375 11.097656 0 11.015625 0 L 8.421875 0 C 8.347656 0 8.285156 -0.0234375 8.234375 -0.078125 C 8.179688 -0.128906 8.15625 -0.191406 8.15625 -0.265625 L 8.15625 -10.265625 C 8.15625 -10.328125 8.140625 -10.359375 8.109375 -10.359375 C 8.078125 -10.359375 8.046875 -10.332031 8.015625 -10.28125 L 6.28125 -7.21875 C 6.207031 -7.09375 6.144531 -7.03125 6.09375 -7.03125 C 6.050781 -7.03125 5.992188 -7.09375 5.921875 -7.21875 L 4.1875 -10.28125 C 4.15625 -10.332031 4.125 -10.359375 4.09375 -10.359375 C 4.0625 -10.359375 4.046875 -10.328125 4.046875 -10.265625 L 4.046875 -0.265625 C 4.046875 -0.191406 4.019531 -0.128906 3.96875 -0.078125 C 3.914062 -0.0234375 3.851562 0 3.78125 0 L 1.1875 0 C 1.101562 0 1.035156 -0.0234375 0.984375 -0.078125 C 0.929688 -0.128906 0.90625 -0.191406 0.90625 -0.265625 L 0.90625 -15.3125 C 0.90625 -15.394531 0.929688 -15.460938 0.984375 -15.515625 C 1.035156 -15.566406 1.101562 -15.59375 1.1875 -15.59375 L 3.734375 -15.59375 C 3.890625 -15.59375 4.003906 -15.53125 4.078125 -15.40625 L 6.0625 -11.875 C 6.101562 -11.8125 6.144531 -11.8125 6.1875 -11.875 Z M 8.109375 -15.40625 "/></g></g></g><g fill="#24386d" fill-opacity="1"><g transform="translate(85.657927, 34.262227)"><g><path d="M 4.921875 0.171875 C 3.597656 0.171875 2.5625 -0.160156 1.8125 -0.828125 C 1.0625 -1.492188 0.6875 -2.40625 0.6875 -3.5625 L 0.6875 -7.875 C 0.6875 -9.007812 1.066406 -9.914062 1.828125 -10.59375 C 2.585938 -11.28125 3.617188 -11.625 4.921875 -11.625 C 6.242188 -11.625 7.28125 -11.28125 8.03125 -10.59375 C 8.789062 -9.914062 9.171875 -9.007812 9.171875 -7.875 L 9.171875 -3.5625 C 9.171875 -2.40625 8.796875 -1.492188 8.046875 -0.828125 C 7.296875 -0.160156 6.253906 0.171875 4.921875 0.171875 Z M 4.921875 -2.53125 C 5.242188 -2.53125 5.507812 -2.648438 5.71875 -2.890625 C 5.925781 -3.128906 6.03125 -3.4375 6.03125 -3.8125 L 6.03125 -7.65625 C 6.03125 -8.03125 5.925781 -8.332031 5.71875 -8.5625 C 5.507812 -8.800781 5.242188 -8.921875 4.921875 -8.921875 C 4.597656 -8.921875 4.332031 -8.800781 4.125 -8.5625 C 3.925781 -8.332031 3.828125 -8.03125 3.828125 -7.65625 L 3.828125 -3.8125 C 3.828125 -3.4375 3.925781 -3.128906 4.125 -2.890625 C 4.332031 -2.648438 4.597656 -2.53125 4.921875 -2.53125 Z M 4.921875 -2.53125 "/></g></g></g><g fill="#24386d" fill-opacity="1"><g transform="translate(99.642185, 34.262227)"><g><path d="M 5.96875 -11.578125 C 6.363281 -11.578125 6.675781 -11.503906 6.90625 -11.359375 C 7.019531 -11.285156 7.0625 -11.171875 7.03125 -11.015625 L 6.609375 -8.421875 C 6.597656 -8.253906 6.492188 -8.191406 6.296875 -8.234375 C 6.140625 -8.296875 5.941406 -8.328125 5.703125 -8.328125 C 5.472656 -8.328125 5.28125 -8.296875 5.125 -8.234375 C 4.78125 -8.179688 4.503906 -7.976562 4.296875 -7.625 C 4.085938 -7.28125 3.984375 -6.875 3.984375 -6.40625 L 3.984375 -0.296875 C 3.984375 -0.210938 3.957031 -0.144531 3.90625 -0.09375 C 3.851562 -0.0390625 3.789062 -0.015625 3.71875 -0.015625 L 1.109375 -0.015625 C 1.035156 -0.015625 0.972656 -0.0390625 0.921875 -0.09375 C 0.867188 -0.144531 0.84375 -0.210938 0.84375 -0.296875 L 0.84375 -11.171875 C 0.84375 -11.242188 0.867188 -11.304688 0.921875 -11.359375 C 0.972656 -11.410156 1.035156 -11.4375 1.109375 -11.4375 L 3.71875 -11.4375 C 3.789062 -11.4375 3.851562 -11.410156 3.90625 -11.359375 C 3.957031 -11.304688 3.984375 -11.242188 3.984375 -11.171875 L 3.984375 -10.3125 C 3.984375 -10.25 3.992188 -10.210938 4.015625 -10.203125 C 4.035156 -10.203125 4.0625 -10.222656 4.09375 -10.265625 C 4.5 -11.140625 5.125 -11.578125 5.96875 -11.578125 Z M 5.96875 -11.578125 "/></g></g></g><g fill="#24386d" fill-opacity="1"><g transform="translate(110.843322, 34.262227)"><g><path d="M 9.109375 -5.015625 C 9.109375 -4.941406 9.082031 -4.878906 9.03125 -4.828125 C 8.976562 -4.773438 8.914062 -4.75 8.84375 -4.75 L 3.9375 -4.75 C 3.863281 -4.75 3.828125 -4.707031 3.828125 -4.625 L 3.828125 -3.8125 C 3.828125 -3.4375 3.925781 -3.125 4.125 -2.875 C 4.332031 -2.632812 4.59375 -2.515625 4.90625 -2.515625 C 5.1875 -2.515625 5.414062 -2.609375 5.59375 -2.796875 C 5.769531 -2.984375 5.882812 -3.21875 5.9375 -3.5 C 5.988281 -3.644531 6.085938 -3.71875 6.234375 -3.71875 L 8.796875 -3.578125 C 8.867188 -3.578125 8.929688 -3.550781 8.984375 -3.5 C 9.035156 -3.445312 9.054688 -3.378906 9.046875 -3.296875 C 8.941406 -2.148438 8.539062 -1.285156 7.84375 -0.703125 C 7.15625 -0.117188 6.175781 0.171875 4.90625 0.171875 C 3.582031 0.171875 2.546875 -0.15625 1.796875 -0.8125 C 1.054688 -1.46875 0.6875 -2.382812 0.6875 -3.5625 L 0.6875 -7.875 C 0.6875 -9.007812 1.0625 -9.914062 1.8125 -10.59375 C 2.5625 -11.28125 3.59375 -11.625 4.90625 -11.625 C 6.207031 -11.625 7.234375 -11.28125 7.984375 -10.59375 C 8.734375 -9.914062 9.109375 -9.007812 9.109375 -7.875 Z M 4.90625 -8.921875 C 4.59375 -8.921875 4.332031 -8.800781 4.125 -8.5625 C 3.925781 -8.332031 3.828125 -8.03125 3.828125 -7.65625 L 3.828125 -6.796875 C 3.828125 -6.722656 3.863281 -6.6875 3.9375 -6.6875 L 5.859375 -6.6875 C 5.929688 -6.6875 5.96875 -6.722656 5.96875 -6.796875 L 5.96875 -7.65625 C 5.96875 -8.03125 5.863281 -8.332031 5.65625 -8.5625 C 5.457031 -8.800781 5.207031 -8.921875 4.90625 -8.921875 Z M 4.90625 -8.921875 "/></g></g></g><g fill="#24386d" fill-opacity="1"><g transform="translate(124.693996, 34.262227)"><g/></g></g><g fill="#24386d" fill-opacity="1"><g transform="translate(133.290239, 34.262227)"><g><path d="M 1.25 0 C 1.175781 0 1.113281 -0.0234375 1.0625 -0.078125 C 1.007812 -0.128906 0.984375 -0.191406 0.984375 -0.265625 L 0.984375 -15.3125 C 0.984375 -15.394531 1.007812 -15.460938 1.0625 -15.515625 C 1.113281 -15.566406 1.175781 -15.59375 1.25 -15.59375 L 3.859375 -15.59375 C 3.929688 -15.59375 3.992188 -15.566406 4.046875 -15.515625 C 4.097656 -15.460938 4.125 -15.394531 4.125 -15.3125 L 4.125 -0.265625 C 4.125 -0.191406 4.097656 -0.128906 4.046875 -0.078125 C 3.992188 -0.0234375 3.929688 0 3.859375 0 Z M 1.25 0 "/></g></g></g><g fill="#24386d" fill-opacity="1"><g transform="translate(142.554417, 34.262227)"><g><path d="M 6.171875 -11.625 C 7.179688 -11.625 7.9375 -11.289062 8.4375 -10.625 C 8.945312 -9.957031 9.203125 -9.019531 9.203125 -7.8125 L 9.203125 -0.265625 C 9.203125 -0.191406 9.175781 -0.128906 9.125 -0.078125 C 9.070312 -0.0234375 9.003906 0 8.921875 0 L 6.328125 0 C 6.253906 0 6.191406 -0.0234375 6.140625 -0.078125 C 6.085938 -0.128906 6.0625 -0.191406 6.0625 -0.265625 L 6.0625 -7.578125 C 6.0625 -8.003906 5.972656 -8.332031 5.796875 -8.5625 C 5.628906 -8.800781 5.378906 -8.921875 5.046875 -8.921875 C 4.710938 -8.921875 4.453125 -8.796875 4.265625 -8.546875 C 4.078125 -8.304688 3.984375 -7.96875 3.984375 -7.53125 L 3.984375 -0.265625 C 3.984375 -0.191406 3.957031 -0.128906 3.90625 -0.078125 C 3.851562 -0.0234375 3.789062 0 3.71875 0 L 1.109375 0 C 1.035156 0 0.972656 -0.0234375 0.921875 -0.078125 C 0.867188 -0.128906 0.84375 -0.191406 0.84375 -0.265625 L 0.84375 -11.171875 C 0.84375 -11.242188 0.867188 -11.304688 0.921875 -11.359375 C 0.972656 -11.410156 1.035156 -11.4375 1.109375 -11.4375 L 3.71875 -11.4375 C 3.789062 -11.4375 3.851562 -11.410156 3.90625 -11.359375 C 3.957031 -11.304688 3.984375 -11.242188 3.984375 -11.171875 L 3.984375 -10.75 C 3.984375 -10.707031 4 -10.6875 4.03125 -10.6875 C 4.070312 -10.6875 4.125 -10.71875 4.1875 -10.78125 C 4.664062 -11.34375 5.328125 -11.625 6.171875 -11.625 Z M 6.171875 -11.625 "/></g></g></g><g fill="#24386d" fill-opacity="1"><g transform="translate(156.649997, 34.262227)"><g><path d="M 5.90625 -11.4375 C 5.976562 -11.4375 6.039062 -11.410156 6.09375 -11.359375 C 6.144531 -11.304688 6.171875 -11.242188 6.171875 -11.171875 L 6.171875 -9.5 C 6.171875 -9.425781 6.144531 -9.363281 6.09375 -9.3125 C 6.039062 -9.257812 5.976562 -9.234375 5.90625 -9.234375 L 4.671875 -9.234375 C 4.597656 -9.234375 4.5625 -9.195312 4.5625 -9.125 L 4.5625 -0.265625 C 4.5625 -0.191406 4.535156 -0.128906 4.484375 -0.078125 C 4.429688 -0.0234375 4.367188 0 4.296875 0 L 1.71875 0 C 1.644531 0 1.582031 -0.0234375 1.53125 -0.078125 C 1.476562 -0.128906 1.453125 -0.191406 1.453125 -0.265625 L 1.453125 -9.125 C 1.453125 -9.195312 1.414062 -9.234375 1.34375 -9.234375 L 0.671875 -9.234375 C 0.597656 -9.234375 0.535156 -9.257812 0.484375 -9.3125 C 0.429688 -9.363281 0.40625 -9.425781 0.40625 -9.5 L 0.40625 -11.171875 C 0.40625 -11.242188 0.429688 -11.304688 0.484375 -11.359375 C 0.535156 -11.410156 0.597656 -11.4375 0.671875 -11.4375 L 1.34375 -11.4375 C 1.414062 -11.4375 1.453125 -11.476562 1.453125 -11.5625 L 1.453125 -12.15625 C 1.453125 -13.488281 1.785156 -14.410156 2.453125 -14.921875 C 3.128906 -15.441406 4.203125 -15.6875 5.671875 -15.65625 L 5.765625 -15.65625 C 5.835938 -15.65625 5.898438 -15.628906 5.953125 -15.578125 C 6.003906 -15.523438 6.03125 -15.460938 6.03125 -15.390625 L 6.015625 -13.609375 C 6.015625 -13.535156 5.988281 -13.472656 5.9375 -13.421875 C 5.882812 -13.367188 5.820312 -13.34375 5.75 -13.34375 L 5.703125 -13.34375 C 4.941406 -13.320312 4.5625 -12.859375 4.5625 -11.953125 L 4.5625 -11.5625 C 4.5625 -11.476562 4.597656 -11.4375 4.671875 -11.4375 Z M 5.90625 -11.4375 "/></g></g></g><g fill="#24386d" fill-opacity="1"><g transform="translate(167.42816, 34.262227)"><g><path d="M 4.921875 0.171875 C 3.597656 0.171875 2.5625 -0.160156 1.8125 -0.828125 C 1.0625 -1.492188 0.6875 -2.40625 0.6875 -3.5625 L 0.6875 -7.875 C 0.6875 -9.007812 1.066406 -9.914062 1.828125 -10.59375 C 2.585938 -11.28125 3.617188 -11.625 4.921875 -11.625 C 6.242188 -11.625 7.28125 -11.28125 8.03125 -10.59375 C 8.789062 -9.914062 9.171875 -9.007812 9.171875 -7.875 L 9.171875 -3.5625 C 9.171875 -2.40625 8.796875 -1.492188 8.046875 -0.828125 C 7.296875 -0.160156 6.253906 0.171875 4.921875 0.171875 Z M 4.921875 -2.53125 C 5.242188 -2.53125 5.507812 -2.648438 5.71875 -2.890625 C 5.925781 -3.128906 6.03125 -3.4375 6.03125 -3.8125 L 6.03125 -7.65625 C 6.03125 -8.03125 5.925781 -8.332031 5.71875 -8.5625 C 5.507812 -8.800781 5.242188 -8.921875 4.921875 -8.921875 C 4.597656 -8.921875 4.332031 -8.800781 4.125 -8.5625 C 3.925781 -8.332031 3.828125 -8.03125 3.828125 -7.65625 L 3.828125 -3.8125 C 3.828125 -3.4375 3.925781 -3.128906 4.125 -2.890625 C 4.332031 -2.648438 4.597656 -2.53125 4.921875 -2.53125 Z M 4.921875 -2.53125 "/></g></g></g><g fill="#24386d" fill-opacity="1"><g transform="translate(181.412419, 34.262227)"><g><path d="M 5.96875 -11.578125 C 6.363281 -11.578125 6.675781 -11.503906 6.90625 -11.359375 C 7.019531 -11.285156 7.0625 -11.171875 7.03125 -11.015625 L 6.609375 -8.421875 C 6.597656 -8.253906 6.492188 -8.191406 6.296875 -8.234375 C 6.140625 -8.296875 5.941406 -8.328125 5.703125 -8.328125 C 5.472656 -8.328125 5.28125 -8.296875 5.125 -8.234375 C 4.78125 -8.179688 4.503906 -7.976562 4.296875 -7.625 C 4.085938 -7.28125 3.984375 -6.875 3.984375 -6.40625 L 3.984375 -0.296875 C 3.984375 -0.210938 3.957031 -0.144531 3.90625 -0.09375 C 3.851562 -0.0390625 3.789062 -0.015625 3.71875 -0.015625 L 1.109375 -0.015625 C 1.035156 -0.015625 0.972656 -0.0390625 0.921875 -0.09375 C 0.867188 -0.144531 0.84375 -0.210938 0.84375 -0.296875 L 0.84375 -11.171875 C 0.84375 -11.242188 0.867188 -11.304688 0.921875 -11.359375 C 0.972656 -11.410156 1.035156 -11.4375 1.109375 -11.4375 L 3.71875 -11.4375 C 3.789062 -11.4375 3.851562 -11.410156 3.90625 -11.359375 C 3.957031 -11.304688 3.984375 -11.242188 3.984375 -11.171875 L 3.984375 -10.3125 C 3.984375 -10.25 3.992188 -10.210938 4.015625 -10.203125 C 4.035156 -10.203125 4.0625 -10.222656 4.09375 -10.265625 C 4.5 -11.140625 5.125 -11.578125 5.96875 -11.578125 Z M 5.96875 -11.578125 "/></g></g></g><g fill="#24386d" fill-opacity="1"><g transform="translate(192.769462, 34.262227)"><g><path d="M 11.25 -11.625 C 12.257812 -11.625 13.015625 -11.28125 13.515625 -10.59375 C 14.015625 -9.914062 14.265625 -8.957031 14.265625 -7.71875 L 14.265625 -0.265625 C 14.265625 -0.191406 14.238281 -0.128906 14.1875 -0.078125 C 14.132812 -0.0234375 14.070312 0 14 0 L 11.40625 0 C 11.320312 0 11.253906 -0.0234375 11.203125 -0.078125 C 11.160156 -0.128906 11.140625 -0.191406 11.140625 -0.265625 L 11.140625 -7.53125 C 11.140625 -7.96875 11.046875 -8.304688 10.859375 -8.546875 C 10.679688 -8.796875 10.445312 -8.921875 10.15625 -8.921875 C 9.820312 -8.921875 9.5625 -8.796875 9.375 -8.546875 C 9.195312 -8.304688 9.109375 -7.96875 9.109375 -7.53125 L 9.109375 -0.265625 C 9.109375 -0.191406 9.082031 -0.128906 9.03125 -0.078125 C 8.976562 -0.0234375 8.914062 0 8.84375 0 L 6.25 0 C 6.175781 0 6.113281 -0.0234375 6.0625 -0.078125 C 6.007812 -0.128906 5.984375 -0.191406 5.984375 -0.265625 L 5.984375 -7.53125 C 5.984375 -7.96875 5.894531 -8.304688 5.71875 -8.546875 C 5.539062 -8.796875 5.304688 -8.921875 5.015625 -8.921875 C 4.679688 -8.921875 4.421875 -8.796875 4.234375 -8.546875 C 4.054688 -8.304688 3.96875 -7.96875 3.96875 -7.53125 L 3.96875 -0.265625 C 3.96875 -0.191406 3.941406 -0.128906 3.890625 -0.078125 C 3.835938 -0.0234375 3.773438 0 3.703125 0 L 1.09375 0 C 1.019531 0 0.957031 -0.0234375 0.90625 -0.078125 C 0.851562 -0.128906 0.828125 -0.191406 0.828125 -0.265625 L 0.828125 -11.171875 C 0.828125 -11.242188 0.851562 -11.304688 0.90625 -11.359375 C 0.957031 -11.410156 1.019531 -11.4375 1.09375 -11.4375 L 3.703125 -11.4375 C 3.773438 -11.4375 3.835938 -11.410156 3.890625 -11.359375 C 3.941406 -11.304688 3.96875 -11.242188 3.96875 -11.171875 L 3.96875 -10.890625 C 3.96875 -10.847656 3.976562 -10.816406 4 -10.796875 C 4.03125 -10.785156 4.0625 -10.796875 4.09375 -10.828125 C 4.394531 -11.117188 4.722656 -11.320312 5.078125 -11.4375 C 5.429688 -11.5625 5.769531 -11.625 6.09375 -11.625 C 7.257812 -11.625 8.09375 -11.164062 8.59375 -10.25 L 8.640625 -10.21875 C 8.679688 -10.21875 8.734375 -10.265625 8.796875 -10.359375 C 9.109375 -10.828125 9.484375 -11.15625 9.921875 -11.34375 C 10.359375 -11.53125 10.800781 -11.625 11.25 -11.625 Z M 11.25 -11.625 "/></g></g></g><g fill="#24386d" fill-opacity="1"><g transform="translate(211.941348, 34.262227)"><g><path d="M 4.984375 -11.625 C 6.242188 -11.625 7.265625 -11.28125 8.046875 -10.59375 C 8.835938 -9.914062 9.234375 -9.019531 9.234375 -7.90625 L 9.234375 -0.265625 C 9.234375 -0.191406 9.207031 -0.128906 9.15625 -0.078125 C 9.101562 -0.0234375 9.039062 0 8.96875 0 L 6.375 0 C 6.289062 0 6.222656 -0.0234375 6.171875 -0.078125 C 6.117188 -0.128906 6.09375 -0.191406 6.09375 -0.265625 L 6.09375 -0.75 C 6.09375 -0.800781 6.078125 -0.832031 6.046875 -0.84375 C 6.023438 -0.863281 6 -0.847656 5.96875 -0.796875 C 5.476562 -0.171875 4.722656 0.148438 3.703125 0.171875 C 2.835938 0.171875 2.085938 -0.0625 1.453125 -0.53125 C 0.828125 -1.007812 0.515625 -1.914062 0.515625 -3.25 C 0.515625 -4.632812 0.894531 -5.582031 1.65625 -6.09375 C 2.425781 -6.613281 3.53125 -6.875 4.96875 -6.875 L 5.984375 -6.875 C 6.054688 -6.875 6.09375 -6.910156 6.09375 -6.984375 L 6.09375 -7.546875 C 6.09375 -7.953125 5.984375 -8.28125 5.765625 -8.53125 C 5.554688 -8.789062 5.289062 -8.921875 4.96875 -8.921875 C 4.71875 -8.921875 4.503906 -8.84375 4.328125 -8.6875 C 4.160156 -8.539062 4.054688 -8.320312 4.015625 -8.03125 C 3.992188 -7.851562 3.894531 -7.765625 3.71875 -7.765625 L 1.046875 -7.796875 C 0.867188 -7.796875 0.78125 -7.882812 0.78125 -8.0625 C 0.851562 -9.144531 1.273438 -10.007812 2.046875 -10.65625 C 2.816406 -11.300781 3.796875 -11.625 4.984375 -11.625 Z M 4.765625 -2.25 C 5.109375 -2.25 5.414062 -2.363281 5.6875 -2.59375 C 5.957031 -2.820312 6.09375 -3.128906 6.09375 -3.515625 L 6.09375 -4.5625 C 6.09375 -4.632812 6.054688 -4.671875 5.984375 -4.671875 L 5.078125 -4.671875 C 4.671875 -4.671875 4.34375 -4.554688 4.09375 -4.328125 C 3.851562 -4.097656 3.734375 -3.785156 3.734375 -3.390625 C 3.734375 -3.015625 3.828125 -2.726562 4.015625 -2.53125 C 4.203125 -2.34375 4.453125 -2.25 4.765625 -2.25 Z M 4.765625 -2.25 "/></g></g></g><g fill="#24386d" fill-opacity="1"><g transform="translate(226.014663, 34.262227)"><g><path d="M 6.0625 -9.5 C 6.0625 -9.425781 6.035156 -9.363281 5.984375 -9.3125 C 5.929688 -9.257812 5.867188 -9.234375 5.796875 -9.234375 L 4.546875 -9.234375 C 4.472656 -9.234375 4.4375 -9.195312 4.4375 -9.125 L 4.4375 -3.828125 C 4.4375 -3.398438 4.515625 -3.101562 4.671875 -2.9375 C 4.835938 -2.769531 5.082031 -2.695312 5.40625 -2.71875 L 5.5625 -2.71875 C 5.632812 -2.71875 5.695312 -2.691406 5.75 -2.640625 C 5.800781 -2.585938 5.828125 -2.523438 5.828125 -2.453125 L 5.828125 -0.265625 C 5.828125 -0.191406 5.800781 -0.128906 5.75 -0.078125 C 5.695312 -0.0234375 5.632812 0 5.5625 0 L 4.671875 0 C 3.585938 0 2.769531 -0.179688 2.21875 -0.546875 C 1.675781 -0.910156 1.40625 -1.601562 1.40625 -2.625 L 1.40625 -9.125 C 1.40625 -9.195312 1.367188 -9.234375 1.296875 -9.234375 L 0.5625 -9.234375 C 0.488281 -9.234375 0.425781 -9.257812 0.375 -9.3125 C 0.320312 -9.363281 0.296875 -9.425781 0.296875 -9.5 L 0.296875 -11.171875 C 0.296875 -11.242188 0.320312 -11.304688 0.375 -11.359375 C 0.425781 -11.410156 0.488281 -11.4375 0.5625 -11.4375 L 1.296875 -11.4375 C 1.367188 -11.4375 1.40625 -11.476562 1.40625 -11.5625 L 1.40625 -14.03125 C 1.40625 -14.101562 1.429688 -14.164062 1.484375 -14.21875 C 1.535156 -14.269531 1.597656 -14.296875 1.671875 -14.296875 L 4.15625 -14.296875 C 4.238281 -14.296875 4.304688 -14.269531 4.359375 -14.21875 C 4.410156 -14.164062 4.4375 -14.101562 4.4375 -14.03125 L 4.4375 -11.5625 C 4.4375 -11.476562 4.472656 -11.4375 4.546875 -11.4375 L 5.796875 -11.4375 C 5.867188 -11.4375 5.929688 -11.410156 5.984375 -11.359375 C 6.035156 -11.304688 6.0625 -11.242188 6.0625 -11.171875 Z M 6.0625 -9.5 "/></g></g></g><g fill="#24386d" fill-opacity="1"><g transform="translate(236.636977, 34.262227)"><g><path d="M 2.421875 -12.734375 C 1.921875 -12.734375 1.503906 -12.898438 1.171875 -13.234375 C 0.835938 -13.566406 0.671875 -13.988281 0.671875 -14.5 C 0.671875 -15.019531 0.832031 -15.441406 1.15625 -15.765625 C 1.476562 -16.085938 1.898438 -16.25 2.421875 -16.25 C 2.941406 -16.25 3.359375 -16.085938 3.671875 -15.765625 C 3.992188 -15.441406 4.15625 -15.019531 4.15625 -14.5 C 4.15625 -13.988281 3.992188 -13.566406 3.671875 -13.234375 C 3.347656 -12.898438 2.929688 -12.734375 2.421875 -12.734375 Z M 1.15625 0 C 1.082031 0 1.019531 -0.0234375 0.96875 -0.078125 C 0.914062 -0.128906 0.890625 -0.191406 0.890625 -0.265625 L 0.890625 -11.171875 C 0.890625 -11.242188 0.914062 -11.304688 0.96875 -11.359375 C 1.019531 -11.410156 1.082031 -11.4375 1.15625 -11.4375 L 3.765625 -11.4375 C 3.835938 -11.4375 3.898438 -11.410156 3.953125 -11.359375 C 4.003906 -11.304688 4.03125 -11.242188 4.03125 -11.171875 L 4.03125 -0.265625 C 4.03125 -0.191406 4.003906 -0.128906 3.953125 -0.078125 C 3.898438 -0.0234375 3.835938 0 3.765625 0 Z M 1.15625 0 "/></g></g></g><g fill="#24386d" fill-opacity="1"><g transform="translate(245.65625, 34.262227)"><g><path d="M 4.921875 0.171875 C 3.597656 0.171875 2.5625 -0.160156 1.8125 -0.828125 C 1.0625 -1.492188 0.6875 -2.40625 0.6875 -3.5625 L 0.6875 -7.875 C 0.6875 -9.007812 1.066406 -9.914062 1.828125 -10.59375 C 2.585938 -11.28125 3.617188 -11.625 4.921875 -11.625 C 6.242188 -11.625 7.28125 -11.28125 8.03125 -10.59375 C 8.789062 -9.914062 9.171875 -9.007812 9.171875 -7.875 L 9.171875 -3.5625 C 9.171875 -2.40625 8.796875 -1.492188 8.046875 -0.828125 C 7.296875 -0.160156 6.253906 0.171875 4.921875 0.171875 Z M 4.921875 -2.53125 C 5.242188 -2.53125 5.507812 -2.648438 5.71875 -2.890625 C 5.925781 -3.128906 6.03125 -3.4375 6.03125 -3.8125 L 6.03125 -7.65625 C 6.03125 -8.03125 5.925781 -8.332031 5.71875 -8.5625 C 5.507812 -8.800781 5.242188 -8.921875 4.921875 -8.921875 C 4.597656 -8.921875 4.332031 -8.800781 4.125 -8.5625 C 3.925781 -8.332031 3.828125 -8.03125 3.828125 -7.65625 L 3.828125 -3.8125 C 3.828125 -3.4375 3.925781 -3.128906 4.125 -2.890625 C 4.332031 -2.648438 4.597656 -2.53125 4.921875 -2.53125 Z M 4.921875 -2.53125 "/></g></g></g><g fill="#24386d" fill-opacity="1"><g transform="translate(259.640497, 34.262227)"><g><path d="M 6.171875 -11.625 C 7.179688 -11.625 7.9375 -11.289062 8.4375 -10.625 C 8.945312 -9.957031 9.203125 -9.019531 9.203125 -7.8125 L 9.203125 -0.265625 C 9.203125 -0.191406 9.175781 -0.128906 9.125 -0.078125 C 9.070312 -0.0234375 9.003906 0 8.921875 0 L 6.328125 0 C 6.253906 0 6.191406 -0.0234375 6.140625 -0.078125 C 6.085938 -0.128906 6.0625 -0.191406 6.0625 -0.265625 L 6.0625 -7.578125 C 6.0625 -8.003906 5.972656 -8.332031 5.796875 -8.5625 C 5.628906 -8.800781 5.378906 -8.921875 5.046875 -8.921875 C 4.710938 -8.921875 4.453125 -8.796875 4.265625 -8.546875 C 4.078125 -8.304688 3.984375 -7.96875 3.984375 -7.53125 L 3.984375 -0.265625 C 3.984375 -0.191406 3.957031 -0.128906 3.90625 -0.078125 C 3.851562 -0.0234375 3.789062 0 3.71875 0 L 1.109375 0 C 1.035156 0 0.972656 -0.0234375 0.921875 -0.078125 C 0.867188 -0.128906 0.84375 -0.191406 0.84375 -0.265625 L 0.84375 -11.171875 C 0.84375 -11.242188 0.867188 -11.304688 0.921875 -11.359375 C 0.972656 -11.410156 1.035156 -11.4375 1.109375 -11.4375 L 3.71875 -11.4375 C 3.789062 -11.4375 3.851562 -11.410156 3.90625 -11.359375 C 3.957031 -11.304688 3.984375 -11.242188 3.984375 -11.171875 L 3.984375 -10.75 C 3.984375 -10.707031 4 -10.6875 4.03125 -10.6875 C 4.070312 -10.6875 4.125 -10.71875 4.1875 -10.78125 C 4.664062 -11.34375 5.328125 -11.625 6.171875 -11.625 Z M 6.171875 -11.625 "/></g></g></g><g fill="#24386d" fill-opacity="1"><g transform="translate(273.736088, 34.262227)"><g><path d="M 3.09375 -7.328125 C 2.59375 -7.328125 2.171875 -7.492188 1.828125 -7.828125 C 1.492188 -8.160156 1.328125 -8.582031 1.328125 -9.09375 C 1.328125 -9.613281 1.488281 -10.035156 1.8125 -10.359375 C 2.144531 -10.679688 2.570312 -10.84375 3.09375 -10.84375 C 3.613281 -10.84375 4.035156 -10.679688 4.359375 -10.359375 C 4.691406 -10.035156 4.859375 -9.613281 4.859375 -9.09375 C 4.859375 -8.582031 4.6875 -8.160156 4.34375 -7.828125 C 4.007812 -7.492188 3.59375 -7.328125 3.09375 -7.328125 Z M 3.09375 -0.015625 C 2.59375 -0.015625 2.171875 -0.179688 1.828125 -0.515625 C 1.492188 -0.847656 1.328125 -1.269531 1.328125 -1.78125 C 1.328125 -2.300781 1.488281 -2.722656 1.8125 -3.046875 C 2.144531 -3.367188 2.570312 -3.53125 3.09375 -3.53125 C 3.613281 -3.53125 4.035156 -3.367188 4.359375 -3.046875 C 4.691406 -2.722656 4.859375 -2.300781 4.859375 -1.78125 C 4.859375 -1.269531 4.6875 -0.847656 4.34375 -0.515625 C 4.007812 -0.179688 3.59375 -0.015625 3.09375 -0.015625 Z M 3.09375 -0.015625 "/></g></g></g><g clip-path="url(#471764ea54)"><g transform="matrix(1, 0, 0, 1, 2, 0)"><g clip-path="url(#b70f902f9d)"><g clip-path="url(#f1d3ed8aeb)"><path fill="#24386d" d="M 0.476562 0 L 8.277344 0 L 8.277344 52.015625 L 0.476562 52.015625 Z M 0.476562 0 " fill-opacity="1" fill-rule="nonzero"/></g></g></g></g></svg>