<?xml version="1.0" encoding="UTF-8"?>
<svg id="Layer_1" xmlns="http://www.w3.org/2000/svg" version="1.1" viewBox="0 0 100 100">
  <!-- Generator: Adobe Illustrator 30.1.0, SVG Export Plug-In . SVG Version: 2.1.1 Build 136)  -->
  <defs>
    <style>
      .st0 {
        fill: #fbae17;
      }

      .st1 {
        fill: #23356e;
      }
    </style>
  </defs>
  <path class="st1" d="M87.12,18.76c-2.64-5.08-6.34-9.01-11.11-11.81-4.77-2.8-10.34-4.2-16.72-4.2H8.93v70.94l21.66-24.88v-25.55h26.96c3.43,0,6.15,1.22,8.18,3.65,2.03,2.44,3.04,5.65,3.04,9.63-.05,3.99-1.09,7.2-3.12,9.63-2.03,2.44-4.73,3.65-8.1,3.65h.29l11.38,19.18c2.41-.69,4.66-1.63,6.75-2.86,4.74-2.8,8.45-6.73,11.11-11.81,2.66-5.08,3.99-11.01,3.99-17.79s-1.32-12.72-3.95-17.79Z"/>
  <polygon class="st0" points="30.59 48.81 57.84 48.81 86.58 97.25 60.01 97.25 30.59 48.81"/>
  <g>
    <rect class="st0" x="23.32" y="70.77" width="4.75" height="4.75"/>
    <rect class="st0" x="30.28" y="70.77" width="4.75" height="4.75"/>
    <rect class="st0" x="23.32" y="77.69" width="4.75" height="4.75"/>
    <rect class="st0" x="30.28" y="77.69" width="4.75" height="4.75"/>
  </g>
  <rect class="st1" x="8.93" y="93.98" width="21.66" height="3.27"/>
</svg>