<?xml version="1.0" encoding="UTF-8"?>
<svg id="Layer_1" xmlns="http://www.w3.org/2000/svg" version="1.1" viewBox="0 0 387 56.22">
  <!-- Generator: Adobe Illustrator 30.1.0, SVG Export Plug-In . SVG Version: 2.1.1 Build 136)  -->
  <defs>
    <style>
      .st0 {
        fill: #fbae17;
      }

      .st1 {
        fill: #23356e;
      }
    </style>
  </defs>
  <g>
    <path class="st0" d="M30.33,2.16C27.83.75,24.9.04,21.53.04H0v55.61h6.65v-21.57h14.88c3.37,0,6.3-.71,8.8-2.12,2.5-1.42,4.44-3.39,5.83-5.93,1.39-2.54,2.08-5.51,2.08-8.93s-.69-6.44-2.08-8.99c-1.39-2.55-3.33-4.53-5.83-5.95ZM28.86,24.86c-1.77,1.96-4.12,2.94-7.06,2.94H6.65V6.31h15.15c2.93,0,5.28.98,7.06,2.94,1.77,1.96,2.66,4.58,2.66,7.84s-.89,5.8-2.66,7.76Z"/>
    <path class="st0" d="M60.34,15.37c-2.58,0-4.94.66-7.09,1.99-1.75,1.07-3.22,2.49-4.42,4.23v-5.65h-6.65v39.7h6.65v-25.13c0-2.78.8-4.95,2.39-6.52,1.59-1.57,3.84-2.35,6.75-2.35,1.5,0,2.83.22,3.98.65,1.15.43,2.09,1.07,2.83,1.91l4.32-5.74c-1.1-1.02-2.38-1.79-3.84-2.31-1.47-.52-3.1-.78-4.91-.78Z"/>
    <rect class="st0" x="72.25" y=".04" width="6.65" height="6.65"/>
    <rect class="st0" x="72.25" y="15.95" width="6.65" height="39.7"/>
    <path class="st0" d="M101.99,15.37c-2.63,0-5.03.6-7.21,1.8-1.77.98-3.27,2.41-4.49,4.28v-5.5h-6.65v39.7h6.65v-25.2c0-2.8.8-4.97,2.39-6.5,1.59-1.53,3.84-2.29,6.75-2.29s5.34.87,6.98,2.6c1.64,1.73,2.47,4.18,2.47,7.34v24.06h6.65v-24.09c0-5.15-1.18-9.13-3.54-11.95-2.36-2.82-5.69-4.23-10-4.23Z"/>
    <path class="st0" d="M135.16,21.84v-5.89h-7.15V4.4h-6.65v11.55h-4.09v5.89h4.09v23.48c0,3.39.73,5.99,2.2,7.8,1.47,1.81,3.83,2.72,7.09,2.72h4.51v-6.27h-3.75c-1.12,0-1.97-.37-2.54-1.11-.57-.74-.86-1.76-.86-3.06v-23.56h7.15Z"/>
  </g>
  <g>
    <rect class="st0" x="266.73" y="49.98" width="1.72" height="1.72"/>
    <rect class="st0" x="269.25" y="49.98" width="1.72" height="1.72"/>
    <rect class="st0" x="266.73" y="52.49" width="1.72" height="1.72"/>
    <rect class="st0" x="269.25" y="52.49" width="1.72" height="1.72"/>
  </g>
  <g>
    <path class="st1" d="M174.38,31.21c2.29-1.38,4.09-3.31,5.37-5.81,1.29-2.5,1.93-5.42,1.93-8.76s-.64-6.26-1.91-8.76c-1.27-2.5-3.07-4.44-5.37-5.81-2.31-1.38-5-2.07-8.09-2.07h-24.36v55.65h10.48v-22.37h6.36l12.54,22.37h12.7l-13.29-22.92c1.31-.34,2.53-.85,3.65-1.52ZM152.43,10.1h13.04c1.66,0,2.98.6,3.96,1.8.98,1.2,1.47,2.78,1.47,4.74-.03,1.96-.53,3.54-1.51,4.74-.98,1.2-2.29,1.8-3.92,1.8h-13.04v-13.08Z"/>
    <path class="st1" d="M199.17,15.37c-5.56,0-9.86,1.62-12.91,4.86-3.05,3.24-4.57,7.82-4.57,13.73v4.47c0,5.66,1.59,10.04,4.76,13.14,3.17,3.1,7.64,4.65,13.41,4.65,2.63,0,5.23-.52,7.8-1.55s4.9-2.49,6.96-4.38l-6.85-6.08c-1.12.92-2.37,1.63-3.75,2.12-1.38.5-2.77.75-4.17.75-2.73,0-4.85-.74-6.37-2.22-1.22-1.19-1.95-2.79-2.18-4.78h24.35v-2.6c0-7.01-1.43-12.45-4.3-16.31-2.87-3.86-6.93-5.79-12.18-5.79ZM191.23,33.01c.09-2.49.77-4.45,2.07-5.85,1.39-1.5,3.35-2.26,5.87-2.26,1.96,0,3.52.63,4.67,1.89,1.15,1.26,1.86,3.03,2.14,5.3l.11.92h-14.86Z"/>
    <path class="st1" d="M235.87,15.37c-3.16,0-6.04.5-8.64,1.51-2.6,1.01-4.69,2.42-6.27,4.23l6.5,6.39c1.12-.89,2.41-1.57,3.86-2.05,1.45-.47,2.92-.71,4.4-.71,2.24,0,3.98.5,5.2,1.49,1.22.99,1.84,2.41,1.84,4.25v1.68h-9.6c-4.72,0-8.25.98-10.61,2.93-2.36,1.95-3.54,4.9-3.54,8.85,0,4.16,1.06,7.24,3.17,9.26,2.12,2.01,5.29,3.02,9.52,3.02,1.86,0,3.67-.24,5.41-.71s3.22-1.2,4.42-2.18c.5-.41.91-.87,1.22-1.37v3.69h9.52v-25.51c0-4.69-1.43-8.32-4.28-10.9-2.86-2.58-6.9-3.86-12.12-3.86ZM240.68,46.81c-1.38.64-3.45.96-6.23.96-1.99,0-3.49-.31-4.49-.94-1.01-.62-1.51-1.59-1.51-2.89s.4-2.22,1.19-2.85c.79-.62,1.98-.94,3.56-.94h9.56v3.67c0,1.35-.69,2.35-2.07,2.98Z"/>
    <path class="st1" d="M304.4,15.37c-5.46,0-9.68,1.49-12.66,4.47s-4.47,7.19-4.47,12.62v6.46c0,5.48,1.49,9.73,4.47,12.75,2.98,3.02,7.2,4.53,12.66,4.53s9.68-1.5,12.66-4.49c2.98-3,4.47-7.22,4.47-12.68v-6.58c0-5.43-1.49-9.64-4.47-12.62s-7.2-4.47-12.66-4.47ZM311.06,39.05c0,2.24-.59,3.98-1.76,5.22-1.17,1.24-2.82,1.85-4.93,1.85s-3.72-.62-4.88-1.85c-1.16-1.24-1.74-2.98-1.74-5.22v-6.58c0-2.22.58-3.94,1.74-5.16,1.16-1.22,2.79-1.84,4.88-1.84s3.76.61,4.93,1.84,1.76,2.94,1.76,5.16v6.58Z"/>
    <path class="st1" d="M350.24,16.16c-1.34-.52-2.84-.78-4.49-.78-2.09,0-4.01.66-5.76,1.99-1.35,1.02-2.5,2.35-3.46,3.99v-5.4h-11.24v39.7h11.24v-22.45c0-2.42.58-4.32,1.74-5.68,1.16-1.36,2.8-2.05,4.91-2.05.97,0,1.83.13,2.58.38.75.25,1.37.64,1.85,1.15l6.12-8.53c-.99-1.02-2.16-1.79-3.5-2.31Z"/>
    <path class="st1" d="M385.62,36.68c-.92-1.55-2.12-2.72-3.61-3.48-1.49-.76-3.13-1.29-4.91-1.59-1.78-.29-3.56-.54-5.32-.75-1.53-.18-2.96-.35-4.28-.52-1.33-.17-2.4-.44-3.21-.82s-1.22-.96-1.22-1.72c0-.89.59-1.57,1.76-2.05,1.17-.47,2.82-.71,4.93-.71,1.73,0,3.54.27,5.43.8s3.7,1.29,5.43,2.26l6.23-7.61c-2.32-1.63-4.95-2.89-7.9-3.79-2.94-.89-5.93-1.34-8.97-1.34-5.18,0-9.18,1.1-12.01,3.29-2.83,2.19-4.25,5.29-4.25,9.29,0,2.52.41,4.52,1.22,5.99.82,1.47,1.91,2.56,3.29,3.29,1.38.73,2.9,1.25,4.57,1.57,1.67.32,3.36.59,5.07.82,1.68.23,3.28.41,4.78.55,1.5.14,2.72.43,3.65.86.93.43,1.4,1.24,1.4,2.41,0,.97-.68,1.73-2.03,2.28-1.35.55-3.25.82-5.7.82-1.89,0-3.88-.33-5.97-.99-2.09-.66-4.09-1.61-6-2.83l-6.46,8.07c2.27,1.71,5.02,3.04,8.24,4,3.23.96,6.62,1.43,10.19,1.43,5.41,0,9.59-1.15,12.56-3.44,2.97-2.29,4.46-5.52,4.46-9.68,0-2.73-.46-4.87-1.38-6.43Z"/>
    <polygon class="st1" points="255.62 55.65 266.1 45.17 266.1 .04 255.62 .04 255.62 55.65"/>
    <polygon class="st1" points="282.05 .04 271.57 .04 271.57 15.95 267.47 15.95 267.47 24.9 271.57 24.9 271.57 45.17 282.05 55.65 282.05 24.9 286.16 24.9 286.16 15.95 282.05 15.95 282.05 .04"/>
  </g>
</svg>